<svg xmlns="http://www.w3.org/2000/svg" width="1200" height="360" viewBox="0 0 1200 360" role="img" aria-labelledby="title desc">
  <title id="title">得救之道</title>
  <desc id="desc">kyjl97 的 GitHub 主页横幅</desc>
  <defs>
    <linearGradient id="bg" x1="0" y1="0" x2="1" y2="1"><stop offset="0" stop-color="#0f172a"/><stop offset=".58" stop-color="#18233c"/><stop offset="1" stop-color="#371f3e"/></linearGradient>
    <linearGradient id="sun" x1="0" y1="0" x2="1" y2="1"><stop offset="0" stop-color="#fde68a"/><stop offset=".52" stop-color="#f97316"/><stop offset="1" stop-color="#a855f7"/></linearGradient>
    <radialGradient id="glow"><stop offset="0" stop-color="#f97316" stop-opacity=".36"/><stop offset="1" stop-color="#f97316" stop-opacity="0"/></radialGradient>
    <filter id="blur"><feGaussianBlur stdDeviation="24"/></filter>
    <pattern id="grid" width="34" height="34" patternUnits="userSpaceOnUse"><path d="M34 0H0V34" fill="none" stroke="#93c5fd" stroke-opacity=".08"/></pattern>
  </defs>
  <rect width="1200" height="360" rx="28" fill="url(#bg)"/>
  <rect width="1200" height="360" rx="28" fill="url(#grid)"/>
  <circle cx="1035" cy="58" r="210" fill="url(#glow)" filter="url(#blur)"/>
  <circle cx="1050" cy="120" r="73" fill="none" stroke="#fde68a" stroke-opacity=".28"/>
  <circle cx="1050" cy="120" r="111" fill="none" stroke="#a855f7" stroke-opacity=".2"/>
  <circle cx="1050" cy="120" r="40" fill="url(#sun)"/>
  <path d="M820 291C914 213 1028 218 1170 275" fill="none" stroke="#f97316" stroke-opacity=".4" stroke-width="2"/>
  <path d="M780 316C900 245 1045 251 1200 319" fill="none" stroke="#a855f7" stroke-opacity=".28" stroke-width="2"/>
  <rect x="66" y="61" width="70" height="70" rx="20" fill="url(#sun)"/>
  <text x="101" y="111" text-anchor="middle" font-family="serif" font-size="39" font-weight="800" fill="#0f172a">道</text>
  <text x="66" y="194" font-family="serif" font-size="62" font-weight="800" letter-spacing="8" fill="#f8fafc">得救之道</text>
  <text x="70" y="239" font-family="-apple-system,BlinkMacSystemFont,Segoe UI,sans-serif" font-size="23" letter-spacing="4" fill="#fde68a">内容记录 · AI 探索 · 个人成长</text>
  <line x1="70" y1="274" x2="382" y2="274" stroke="url(#sun)" stroke-width="4" stroke-linecap="round"/>
  <text x="70" y="310" font-family="ui-monospace,SFMono-Regular,monospace" font-size="18" letter-spacing="3" fill="#93c5fd">github.com/kyjl97</text>
  <text x="1128" y="326" text-anchor="end" font-family="ui-monospace,SFMono-Regular,monospace" font-size="15" fill="#94a3b8">KEEP LEARNING · KEEP BUILDING</text>
</svg>
